<svg xmlns="http://www.w3.org/2000/svg" viewBox="0 0 525.03 130" width="1600" height="396">
  <defs><linearGradient id="cg" gradientUnits="userSpaceOnUse" x1="80" y1="0" x2="80" y2="130"><stop offset="0" stop-color="#3E70E4"/><stop offset="1" stop-color="#2247D2"/></linearGradient></defs>
  <path fill="#F8FAFC" d="M0 0 H35 V27 L6.5 65 L35 103 V130 H0 Z"/>
  <path fill="url(#cg)" d="M62.75 0 H104.75 L56 65 L104.75 130 H62.75 L14 65 Z"/>
  <g transform="translate(133.06 10.59) scale(0.953516)"><path fill="#F8FAFC" d="M22.85 89.76L20.63 67.16L57.64 10.92L79.54 10.92ZM10.16 103.21L10.16 10.92L27.55 10.92L27.55 103.21ZM62.78 103.21L35.99 56.49L50.97 47.04L83.41 103.21ZM129.37 104.17C122.6 104.17 116.68 102.76 111.62 99.94C106.57 97.13 102.64 93.16 99.85 88.04C97.06 82.92 95.66 76.95 95.66 70.14L95.66 43.99C95.66 37.13 97.06 31.16 99.85 26.06C102.64 20.96 106.57 17 111.62 14.19C116.68 11.37 122.6 9.97 129.37 9.97C136.14 9.97 142.05 11.37 147.11 14.19C152.16 17 156.09 20.96 158.88 26.06C161.68 31.16 163.07 37.13 163.07 43.99L163.07 70.14C163.07 76.95 161.68 82.92 158.88 88.04C156.09 93.16 152.16 97.13 147.11 99.94C142.05 102.76 136.14 104.17 129.37 104.17ZM129.37 86.77C134.11 86.77 137.9 85.3 140.76 82.36C143.62 79.42 145.04 75.49 145.04 70.59L145.04 43.54C145.04 38.64 143.63 34.71 140.79 31.77C137.96 28.83 134.15 27.36 129.37 27.36C124.63 27.36 120.83 28.83 117.97 31.77C115.12 34.71 113.69 38.64 113.69 43.54L113.69 70.59C113.69 75.49 115.12 79.42 117.97 82.36C120.83 85.3 124.63 86.77 129.37 86.77ZM206.68 103.21L175.96 10.92L193.86 10.92L213.47 72.49L233.09 10.92L250.99 10.92L220.27 103.21ZM265.78 103.21L265.78 10.92L283.17 10.92L283.17 103.21ZM272.06 103.21L272.06 86.46L327.61 86.46L327.61 103.21ZM272.06 65.76L272.06 49L320.62 49L320.62 65.76ZM272.06 27.68L272.06 10.92L327.61 10.92L327.61 27.68ZM392.73 103.21L370.39 65.44L368.61 62.46L338.08 10.92L356.42 10.92L377.12 45.89L379.53 50.02L411.08 103.21ZM337.32 103.21L370.58 46.4L391.34 10.92L409.68 10.92L379.15 63.1L355.66 103.21Z"/></g>
</svg>